<svg width="307" height="179" viewBox="0 0 307 179" fill="none" xmlns="http://www.w3.org/2000/svg">
<g clip-path="url(#clip0_8662_3)">
<path d="M95.3615 135.972H95.4512L101.278 144.258H105.081L98.7421 135.298L98.9428 135.226C102.699 133.882 104.769 130.912 104.769 126.864C104.769 121.078 100.625 117.627 93.6712 117.627H83.3202V144.267H86.8502V136.049H93.6798C94.2389 136.049 94.7938 136.015 95.3615 135.972ZM86.8502 133.097V120.643H93.5602C98.5117 120.643 101.243 122.849 101.243 126.851C101.243 130.853 98.5159 133.097 93.5602 133.097H86.8502ZM53.3642 144.254H34.1135V117.614H52.8264V120.643H37.6435V129.249H51.1702V132.197H37.6435V141.229H53.3642V144.254ZM241.236 144.254V120.643H231.978V117.614H253.969V120.643H244.728V144.254H241.236ZM65.9946 120.643H56.7448V117.614H78.7402V120.643H69.4862V144.254H65.9946V120.643ZM304.08 144.254L287.655 123.851V144.254H284.125V117.614H287.041L303.461 138.016V117.614H306.996V144.254H304.08ZM181.192 144.565C189.379 144.565 195.324 138.831 195.324 130.912C195.324 122.994 189.379 117.307 181.183 117.307C172.988 117.307 166.969 123.037 166.969 130.934C166.978 138.703 173.073 144.565 181.183 144.565H181.192ZM181.192 120.413C187.236 120.413 191.794 124.935 191.794 130.934C191.794 136.932 187.236 141.455 181.183 141.455C174.99 141.455 170.512 137.031 170.512 130.934C170.512 124.837 174.998 120.413 181.183 120.413H181.192ZM218.869 144.254H200.733V117.614H204.267V141.229H218.869V144.254ZM227.116 144.254H223.586V117.614H227.116V144.254ZM145.328 136.109H152.158C159.102 136.109 163.256 132.657 163.256 126.872C163.256 121.087 159.111 117.635 152.158 117.635H141.777V144.275H145.328V136.109ZM145.328 120.664H152.038C156.989 120.664 159.721 122.87 159.721 126.872C159.721 130.874 156.994 133.08 152.038 133.08H145.328V120.664ZM136.953 130.955C136.953 123.058 131.007 117.328 122.816 117.328C114.625 117.328 108.607 123.058 108.607 130.955C108.607 138.724 114.715 144.608 122.816 144.608C130.986 144.565 136.932 138.831 136.932 130.934L136.953 130.955ZM122.816 141.476C116.627 141.476 112.145 137.052 112.145 130.955C112.145 124.858 116.636 120.434 122.816 120.434C128.865 120.434 133.423 124.956 133.423 130.955C133.423 136.954 128.843 141.455 122.795 141.455L122.816 141.476ZM256.368 144.275L259.334 137.534H273.881L276.869 144.275H280.557L268.452 117.635H264.802L252.731 144.275H256.368ZM266.612 121.001L272.677 134.778H260.521L266.612 121.001ZM17.1037 169.426C17.6455 170.325 17.9098 171.364 17.8635 172.412C17.8666 173.57 17.533 174.704 16.9031 175.676C16.1714 176.755 15.1402 177.595 13.9365 178.095C12.3349 178.751 10.6126 179.061 8.88265 179.004C7.15942 179.012 5.44648 178.738 3.81173 178.194C2.40704 177.769 1.10805 177.052 0 176.09L1.22504 173.505C2.22444 174.348 3.37036 175 4.60567 175.429C5.97173 175.935 7.41736 176.192 8.87412 176.188C9.98695 176.224 11.0976 176.067 12.1566 175.723C12.8873 175.487 13.5328 175.042 14.0133 174.443C14.406 173.911 14.6144 173.266 14.6067 172.604C14.6268 172.247 14.5706 171.89 14.4418 171.556C14.313 171.222 14.1146 170.919 13.8597 170.667C13.272 170.143 12.5836 169.744 11.8364 169.494C10.9432 169.177 10.0308 168.916 9.10461 168.713C8.11006 168.492 7.11125 168.236 6.1167 167.937C5.16007 167.657 4.23688 167.274 3.36354 166.793C2.5518 166.344 1.86404 165.7 1.36164 164.921C0.818207 164.006 0.552722 162.954 0.597581 161.891C0.590734 160.725 0.918064 159.58 1.54091 158.593C2.25711 157.519 3.27201 156.679 4.46053 156.174C6.04948 155.516 7.76124 155.206 9.48024 155.265C10.8351 155.266 12.1841 155.444 13.4926 155.795C14.7183 156.105 15.8828 156.62 16.9372 157.318L15.8104 160.001C14.8456 159.353 13.7816 158.866 12.6602 158.559C11.612 158.278 10.5315 158.134 9.44609 158.133C8.35329 158.097 7.26342 158.265 6.23195 158.627C5.50063 158.878 4.86026 159.339 4.39224 159.954C4.00775 160.495 3.80451 161.143 3.81173 161.806C3.79536 162.169 3.85656 162.532 3.99124 162.869C4.12593 163.207 4.33101 163.512 4.59285 163.764C5.17653 164.288 5.86466 164.682 6.61184 164.921C7.50901 165.23 8.42238 165.491 9.34791 165.701C10.341 165.932 11.337 166.191 12.3358 166.478C13.2934 166.747 14.2171 167.125 15.089 167.604C15.8975 168.04 16.5886 168.665 17.1037 169.426ZM19.3532 155.901H38.2496V158.721H30.417V178.718H27.1858V158.721H19.3532V155.901ZM59.8437 158.645C58.7208 157.561 57.391 156.715 55.9338 156.157C52.7585 154.98 49.2661 154.98 46.0908 156.157C44.6348 156.726 43.3059 157.577 42.1809 158.662C41.0766 159.73 40.1971 161.008 39.5942 162.42C38.3649 165.428 38.3649 168.798 39.5942 171.807C40.1971 173.219 41.0766 174.497 42.1809 175.565C43.3101 176.653 44.6452 177.504 46.1078 178.07C49.2744 179.247 52.7587 179.247 55.9253 178.07C57.3833 177.515 58.7135 176.67 59.8352 175.587C60.9345 174.52 61.8058 173.241 62.3963 171.828C63.6142 168.793 63.6142 165.405 62.3963 162.369C61.8057 160.968 60.9374 159.701 59.8437 158.645ZM59.3315 170.667C58.894 171.726 58.253 172.688 57.4448 173.5C56.6298 174.31 55.6601 174.947 54.5935 175.373C53.4479 175.823 52.2261 176.048 50.9952 176.035C49.777 176.046 48.5682 175.821 47.4353 175.373C46.3661 174.949 45.3927 174.316 44.5723 173.51C43.752 172.704 43.1014 171.742 42.6589 170.68C41.7542 168.409 41.7542 165.878 42.6589 163.606C43.1032 162.548 43.7515 161.586 44.5669 160.778C45.3841 159.959 46.3602 159.316 47.4353 158.888C48.5682 158.44 49.777 158.215 50.9952 158.226C52.2261 158.213 53.4479 158.438 54.5935 158.888C55.6635 159.316 56.634 159.959 57.4448 160.778C58.2736 161.614 58.927 162.607 59.3668 163.698C59.8065 164.79 60.0238 165.958 60.0059 167.135C60.0189 168.346 59.7896 169.547 59.3315 170.667ZM69.8404 163.564C68.9297 165.85 68.9297 168.398 69.8404 170.685C70.2726 171.75 70.9208 172.715 71.7442 173.517C72.5777 174.322 73.5629 174.953 74.6425 175.373C75.8005 175.821 77.0331 176.046 78.2749 176.035C79.489 176.043 80.6929 175.813 81.8177 175.356C82.9563 174.883 83.9764 174.165 84.8056 173.253L86.9612 175.339C85.9015 176.532 84.5791 177.462 83.0983 178.057C81.513 178.689 79.8192 179.003 78.1127 178.983C76.4413 179.001 74.7814 178.703 73.2211 178.104C71.7741 177.547 70.4555 176.702 69.3453 175.621C68.2541 174.547 67.384 173.27 66.7842 171.862C65.5492 168.824 65.5492 165.424 66.7842 162.386C67.388 160.974 68.2674 159.696 69.3709 158.627C70.4905 157.548 71.8138 156.703 73.2638 156.14C76.4411 154.962 79.9377 154.974 83.1068 156.174C84.5875 156.761 85.9104 157.686 86.9698 158.875L84.8142 160.961C83.9767 160.067 82.9581 159.362 81.8263 158.892C80.7014 158.435 79.4975 158.205 78.2834 158.214C77.0417 158.202 75.8091 158.427 74.651 158.875C73.5706 159.294 72.5851 159.925 71.7527 160.731C70.9243 161.538 70.273 162.508 69.8404 163.581V163.564ZM100.146 165.974L110.681 178.718H106.801L97.9482 168.419L93.6798 172.732V178.735H90.3674V155.547H93.6798V168.534L106.276 155.564H110.054L100.146 165.974ZM126.423 175.834H139.946V178.718H123.132V155.547H139.506V158.427H126.432V165.548H138.072V168.364H126.432L126.423 175.834ZM155.598 166.725L164.37 178.718H160.566L153.613 169.161L146.745 178.718H142.938L151.65 166.836L143.467 155.53H147.245L153.733 164.426L160.169 155.53H163.785L155.598 166.725ZM169.061 163.564C168.156 165.851 168.156 168.397 169.061 170.685C169.494 171.75 170.144 172.715 170.969 173.517C171.802 174.323 172.787 174.954 173.867 175.373C175.024 175.821 176.255 176.045 177.495 176.035C178.711 176.043 179.916 175.813 181.042 175.356C182.181 174.883 183.201 174.165 184.03 173.253L186.164 175.339C185.111 176.53 183.796 177.46 182.323 178.057C179.146 179.275 175.634 179.292 172.446 178.104C170.999 177.547 169.68 176.702 168.57 175.621C167.477 174.548 166.607 173.271 166.009 171.862C164.768 168.825 164.768 165.423 166.009 162.386C166.616 160.968 167.502 159.686 168.615 158.617C169.727 157.548 171.043 156.713 172.484 156.161C175.661 154.984 179.158 154.996 182.327 156.196C183.8 156.785 185.116 157.71 186.169 158.896L184.034 160.983C183.197 160.088 182.178 159.383 181.046 158.913C179.92 158.457 178.715 158.226 177.499 158.235C176.259 158.224 175.028 158.449 173.871 158.896C172.79 159.314 171.805 159.945 170.973 160.752C170.15 161.554 169.502 162.517 169.069 163.581L169.061 163.564ZM206.23 155.53H209.547V178.718H206.239V168.398H192.917V178.735H189.6V155.547H192.917V165.518H206.239L206.23 155.53ZM224.158 155.53L213.649 178.718H217.064L219.625 172.92H231.978L234.539 178.718H238.022L227.453 155.547L224.158 155.53ZM220.777 170.271L225.78 158.892L230.783 170.271H220.777ZM258.062 155.53H261.379V178.718H258.66L244.74 161.439V178.718H241.424V155.547H244.143L258.062 172.826V155.53ZM269.113 163.581C268.202 165.855 268.202 168.393 269.113 170.667C269.55 171.74 270.204 172.71 271.034 173.517C271.876 174.332 272.873 174.969 273.966 175.39C275.141 175.839 276.389 176.063 277.646 176.052C278.858 176.057 280.062 175.86 281.21 175.472C281.87 175.244 282.498 174.935 283.08 174.55V167.007H286.264V176.052C285.079 177.044 283.71 177.792 282.234 178.253C280.699 178.752 279.094 179.004 277.479 179C275.793 179.02 274.117 178.722 272.541 178.121C271.094 177.57 269.773 176.733 268.657 175.661C267.541 174.589 266.652 173.302 266.044 171.879C264.809 168.841 264.809 165.441 266.044 162.403C266.651 160.988 267.537 159.71 268.648 158.645C269.779 157.564 271.114 156.718 272.575 156.157C274.165 155.565 275.851 155.276 277.548 155.304C279.271 155.271 280.985 155.562 282.602 156.161C284.089 156.734 285.418 157.654 286.477 158.845L284.424 160.901C283.541 160.017 282.487 159.323 281.325 158.862C280.166 158.424 278.936 158.206 277.697 158.218C276.435 158.207 275.181 158.431 274.001 158.879C272.903 159.295 271.9 159.926 271.051 160.735C270.212 161.537 269.552 162.507 269.113 163.581ZM306.987 175.851V178.735H290.622V155.547H306.996V158.427H293.939V165.548H305.57V168.364H293.939V175.847L306.987 175.851Z" fill="#414042"/>
<path d="M296.658 50.9842L267.321 29.75V72.2142L296.658 50.9842Z" fill="#F68B1F"/>
<path d="M307.004 0.00817689V28.1285L267.32 0.00817689H307.004ZM307.004 101.977V73.8438L267.32 101.977H307.004ZM220.355 101.977H246.58V0.00817689H220.355V101.977ZM-6.19016e-06 101.977H28.2059L-6.19016e-06 62.4139V101.977ZM97.1457 101.977V62.4011L68.9227 101.977H97.1457ZM48.5665 42.0287L18.2604 0.00390625H-0.00854492V22.5224L48.575 89.9327L97.1457 22.548V0.00817689H78.8682L48.5665 42.0287ZM115.423 101.977H155.12L115.423 73.8566V101.977ZM202.073 28.1328V0.00817689H162.402L202.073 28.1328ZM183.868 51.351L177.892 46.9992C177.525 46.7176 177.158 46.4402 176.787 46.1672L115.41 1.36918V6.13057C115.41 25.7564 117.728 39.0251 133.62 50.6128L139.596 54.9689C139.957 55.2534 140.324 55.5378 140.697 55.8222L202.073 100.62V95.8247C202.073 76.1947 199.755 62.9302 183.868 51.3382V51.351Z" fill="#03558B"/>
<path d="M3.37635 144.254H0V117.614H2.90682L14.2524 136.724L25.4443 117.614H28.3511L28.3852 144.254H25.0089L24.9705 124.189L14.9695 140.982H13.3773L3.37635 124.304V144.254Z" fill="#414042"/>
</g>
<defs>
<clipPath id="clip0_8662_3">
<rect width="307" height="179" fill="white"/>
</clipPath>
</defs>
</svg>
